<?xml version="1.0" standalone="no"?>
<!DOCTYPE svg PUBLIC "-//W3C//DTD SVG 20010904//EN"
 "http://www.w3.org/TR/2001/REC-SVG-20010904/DTD/svg10.dtd">
<svg version="1.0" xmlns="http://www.w3.org/2000/svg"
 width="82.000000pt" height="82.000000pt" viewBox="0 0 82.000000 82.000000"
 preserveAspectRatio="xMidYMid meet">
<metadata>
Created by potrace 1.11, written by Peter Selinger 2001-2013
</metadata>
<g transform="translate(0.000000,82.000000) scale(0.100000,-0.100000)"
fill="#000000" stroke="none">
<path d="M375 802 c-6 -5 -26 -15 -45 -22 -51 -20 -178 -96 -227 -136 -36 -30
-42 -41 -48 -87 -9 -73 -10 -200 -1 -279 l8 -68 66 -47 c115 -82 255 -153 292
-147 56 10 293 145 329 188 7 8 15 27 18 43 6 30 6 281 -1 323 -2 14 -4 30 -5
36 -1 13 -104 87 -176 127 -124 69 -187 89 -210 69z"/>
</g>
</svg>
